<?xml version="1.0" encoding="UTF-8"?>
<svg width="45px" height="45px" viewBox="0 0 45 45" version="1.1" xmlns="http://www.w3.org/2000/svg" xmlns:xlink="http://www.w3.org/1999/xlink">
    <!-- Generator: Sketch 63.1 (92452) - https://sketch.com -->
    <title>Symbols</title>
    <desc>Created with Sketch.</desc>
    <g id="Page-1" stroke="none" stroke-width="1" fill="none" fill-rule="evenodd">
        <g id="Artboard" transform="translate(-207.000000, -4.000000)" fill="#000000" fill-rule="nonzero">
            <g id="Symbols" transform="translate(207.000000, 4.000000)">
                <g id="Header-Editor-Default">
                    <g id="Group-2">
                        <g id="icons8-settings">
                            <path d="M16.8618166,0 L15.7543945,5.67773437 C13.9076872,6.3760527 12.2001212,7.35165922 10.7006837,8.58251947 L5.24707043,6.7016601 L0,15.7983399 L4.36376948,19.5908197 C4.2090462,20.5402185 4.10888678,21.5068928 4.10888678,22.5 C4.10888678,23.4931073 4.2090462,24.4597815 4.36376948,25.4091802 L0,29.201661 L5.24707043,38.298339 L10.7006837,36.4174808 C12.2001212,37.648341 13.9076872,38.6239477 15.7543945,39.3222645 L16.8618166,45 L27.3559565,45 L28.4633795,39.3222645 C30.3100872,38.6239477 32.0176527,37.648341 33.5170887,36.4174808 L38.970704,38.298339 L44.2177737,29.201661 L39.8540045,25.4091802 C40.008728,24.4597815 40.1088867,23.4931073 40.1088867,22.5 C40.1088867,21.5068928 40.008728,20.5402185 39.8540045,19.5908197 L44.2177737,15.7983399 L38.970704,6.7016601 L33.5170887,8.58251947 C32.0176527,7.35165922 30.3100872,6.3760527 28.4633795,5.67773437 L27.3559565,0 L16.8618166,0 Z M22.1088868,13.5 C27.0791368,13.5 31.1088868,17.52975 31.1088868,22.5 C31.1088868,27.47025 27.0791368,31.5 22.1088868,31.5 C17.1386368,31.5 13.1088868,27.47025 13.1088868,22.5 C13.1088868,17.52975 17.1386368,13.5 22.1088868,13.5 Z" id="Shape-Copy"></path>
                        </g>
                    </g>
                </g>
            </g>
        </g>
    </g>
</svg>