<?xml version="1.0" encoding="UTF-8"?>
<svg width="45px" height="45px" viewBox="0 0 45 45" version="1.1" xmlns="http://www.w3.org/2000/svg" xmlns:xlink="http://www.w3.org/1999/xlink">
    <!-- Generator: Sketch 63.1 (92452) - https://sketch.com -->
    <title>Symbols</title>
    <desc>Created with Sketch.</desc>
    <g id="Page-1" stroke="none" stroke-width="1" fill="none" fill-rule="evenodd">
        <g id="Artboard" fill="#000000" fill-rule="nonzero">
            <g id="Symbols">
                <g id="Header-Editor-Default">
                    <g id="Group-2">
                        <g id="icons8-pencil">
                            <path d="M36.5069888,0 C35.9009716,0 35.2942838,0.230846906 34.8324418,0.693873563 L30.7894736,4.73684203 L40.263158,14.2105264 L44.3061262,10.1675576 C45.2321786,9.24150487 45.2321786,7.7421465 44.3061262,6.81846216 L38.1815384,0.693873563 C37.718512,0.230846906 37.1130086,0 36.5069888,0 Z M27.236842,8.28947362 L4.73684203,30.7894736 C4.73684203,30.7894736 7.11710522,30.8013157 8.28947362,31.9736843 C9.46184203,33.1460527 9.43667775,35.4893093 9.43667775,35.4893093 C9.43667775,35.4893093 11.8515788,35.5357896 13.0263157,36.7105264 C14.2010527,37.8852632 14.2105264,40.263158 14.2105264,40.263158 L36.7105264,17.763158 L27.236842,8.28947362 Z M1.58665725,35.5263157 L0,45 L9.47368434,43.4133427 L1.58665725,35.5263157 Z" id="Shape"></path>
                        </g>
                    </g>
                </g>
            </g>
        </g>
    </g>
</svg>