<?xml version="1.0" encoding="UTF-8"?>
<svg width="45px" height="45px" viewBox="0 0 45 45" version="1.1" xmlns="http://www.w3.org/2000/svg" xmlns:xlink="http://www.w3.org/1999/xlink">
    <!-- Generator: Sketch 63.1 (92452) - https://sketch.com -->
    <title>Symbols</title>
    <desc>Created with Sketch.</desc>
    <g id="Page-1" stroke="none" stroke-width="1" fill="none" fill-rule="evenodd">
        <g id="Artboard" transform="translate(-148.000000, 0.000000)" fill="#000000" fill-rule="nonzero">
            <g id="Symbols" transform="translate(148.000000, 0.000000)">
                <g id="Header-Editor-Default">
                    <g id="Group-2">
                        <g id="icons8-plus-math">
                            <path d="M20.25,0 C18.8964855,0 18,0.8964855 18,2.25 L18,18 L2.25,18 C0.8964855,18 0,18.8964855 0,20.25 L0,24.75 C0,26.1035167 0.8964855,27 2.25,27 L18,27 L18,42.75 C18,44.1035167 18.8964855,45 20.25,45 L24.75,45 C26.1035167,45 27,44.1035167 27,42.75 L27,27 L42.75,27 C44.1035167,27 45,26.1035167 45,24.75 L45,20.25 C45,18.8964855 44.1035167,18 42.75,18 L27,18 L27,2.25 C27,0.8964855 26.1035167,0 24.75,0 L20.25,0 Z" id="Path"></path>
                        </g>
                    </g>
                </g>
            </g>
        </g>
    </g>
</svg>