<?xml version="1.0" encoding="UTF-8"?>
<svg width="45px" height="45px" viewBox="0 0 45 45" version="1.1" xmlns="http://www.w3.org/2000/svg" xmlns:xlink="http://www.w3.org/1999/xlink">
    <!-- Generator: Sketch 63.1 (92452) - https://sketch.com -->
    <title>Symbols</title>
    <desc>Created with Sketch.</desc>
    <g id="Page-1" stroke="none" stroke-width="1" fill="none" fill-rule="evenodd">
        <g id="Artboard" transform="translate(-78.000000, -4.000000)" fill="#000000" fill-rule="nonzero">
            <g id="Symbols" transform="translate(78.000000, 4.000000)">
                <g id="Header-Editor---Page-Nav">
                    <g id="Group-2">
                        <g id="Screen-Shot-2020-01-30-at-2.48.35-PM">
                            <g id="icons8-search">
                                <g id="Shape">
                                    <path d="M17.9472141,0 C8.02511049,0 0,7.84115381 0,17.5358166 C0,27.2304805 8.02511049,35.0716331 17.9472141,35.0716331 C21.4896447,35.0716331 24.7681457,34.056232 27.547654,32.3316619 L40.5131965,45 L45,40.6160457 L32.1994136,28.1411176 C34.5005505,25.1916189 35.894428,21.5369804 35.894428,17.5358166 C35.894428,7.84115381 27.8693187,0 17.9472141,0 Z M17.9472141,4.1260745 C25.5475626,4.1260745 31.6715543,10.1096881 31.6715543,17.5358166 C31.6715543,24.9619451 25.5475626,30.9455587 17.9472141,30.9455587 C10.3468656,30.9455587 4.22287391,24.9619451 4.22287391,17.5358166 C4.22287391,10.1096881 10.3468656,4.1260745 17.9472141,4.1260745 Z"></path>
                                </g>
                            </g>
                        </g>
                    </g>
                </g>
            </g>
        </g>
    </g>
</svg>