<?xml version="1.0" encoding="UTF-8"?>
<svg width="45px" height="45px" viewBox="0 0 45 45" version="1.1" xmlns="http://www.w3.org/2000/svg" xmlns:xlink="http://www.w3.org/1999/xlink">
    <!-- Generator: Sketch 63.1 (92452) - https://sketch.com -->
    <title>Symbols</title>
    <desc>Created with Sketch.</desc>
    <g id="Page-1" stroke="none" stroke-width="1" fill="none" fill-rule="evenodd">
        <g id="Artboard" transform="translate(-6.000000, -19.000000)" fill="#000000" fill-rule="nonzero">
            <g id="Symbols" transform="translate(6.000000, 19.000000)">
                <g id="Header-Editor-Default">
                    <g id="icons8-slider">
                        <g id="Shape">
                            <path d="M18,0 C15.0713789,0 12.595187,1.88718435 11.6630861,4.5 L0,4.5 L0,9 L11.6630861,9 C12.595187,11.6128156 15.0713789,13.5 18,13.5 C21.7215,13.5 24.75,10.4715 24.75,6.75 C24.75,3.0285 21.7215,0 18,0 Z M29.25,4.5 L29.25,9 L45,9 L45,4.5 L29.25,4.5 Z M29.25,15.75 C26.3213797,15.75 23.8451872,17.6371843 22.9130865,20.25 L0,20.25 L0,24.75 L22.9130865,24.75 C23.8451872,27.3628147 26.3213797,29.25 29.25,29.25 C32.9715,29.25 36,26.2215 36,22.5 C36,18.7785 32.9715,15.75 29.25,15.75 Z M40.5,20.25 L40.5,24.75 L45,24.75 L45,20.25 L40.5,20.25 Z M11.25,31.5 C8.32137885,31.5 5.84518703,33.3871853 4.91308605,36 L0,36 L0,40.5 L4.91308605,40.5 C5.84518703,43.1128147 8.32137885,45 11.25,45 C14.9715,45 18,41.9715 18,38.25 C18,34.5285 14.9715,31.5 11.25,31.5 Z M22.5,36 L22.5,40.5 L45,40.5 L45,36 L22.5,36 Z"></path>
                        </g>
                    </g>
                </g>
            </g>
        </g>
    </g>
</svg>